<svg xmlns="http://www.w3.org/2000/svg" xmlns:xlink="http://www.w3.org/1999/xlink" width="500" zoomAndPan="magnify" viewBox="0 0 375 374.999991" height="500" preserveAspectRatio="xMidYMid meet" version="1.0"><defs><clipPath id="f4428a6c2b"><path d="M 5.039062 5.039062 L 370 5.039062 L 370 370 L 5.039062 370 Z M 5.039062 5.039062 " clip-rule="nonzero"/></clipPath><clipPath id="e8b8540f50"><path d="M 14.773438 14.773438 L 360.523438 14.773438 L 360.523438 360.523438 L 14.773438 360.523438 Z M 14.773438 14.773438 " clip-rule="nonzero"/></clipPath></defs><g clip-path="url(#f4428a6c2b)"><path fill="#00ff00" d="M 369.960938 314.472656 C 369.960938 345.097656 345.132812 369.925781 314.507812 369.925781 L 60.503906 369.925781 C 29.875 369.925781 5.054688 345.097656 5.054688 314.472656 L 5.054688 60.464844 C 5.054688 29.839844 29.878906 5.015625 60.503906 5.015625 L 314.507812 5.015625 C 345.136719 5.015625 369.960938 29.839844 369.960938 60.464844 Z M 369.960938 314.472656 " fill-opacity="1" fill-rule="nonzero"/></g><path fill="#00ff00" d="M 149.34375 135.207031 C 149.34375 136.097656 149.300781 136.988281 149.214844 137.878906 C 149.125 138.765625 148.996094 139.648438 148.820312 140.523438 C 148.648438 141.398438 148.429688 142.265625 148.171875 143.117188 C 147.910156 143.972656 147.613281 144.8125 147.269531 145.636719 C 146.929688 146.460938 146.546875 147.269531 146.125 148.054688 C 145.703125 148.84375 145.246094 149.609375 144.75 150.351562 C 144.253906 151.09375 143.722656 151.808594 143.15625 152.5 C 142.589844 153.1875 141.992188 153.851562 141.359375 154.480469 C 140.730469 155.113281 140.070312 155.710938 139.378906 156.277344 C 138.6875 156.84375 137.972656 157.375 137.230469 157.871094 C 136.488281 158.367188 135.722656 158.824219 134.933594 159.246094 C 134.148438 159.667969 133.339844 160.046875 132.515625 160.390625 C 131.691406 160.730469 130.851562 161.03125 129.996094 161.292969 C 129.144531 161.550781 128.277344 161.765625 127.402344 161.941406 C 126.527344 162.117188 125.644531 162.246094 124.757812 162.335938 C 123.867188 162.421875 122.976562 162.464844 122.085938 162.464844 C 121.191406 162.464844 120.300781 162.421875 119.414062 162.335938 C 118.523438 162.246094 117.640625 162.117188 116.765625 161.941406 C 115.890625 161.765625 115.027344 161.550781 114.171875 161.292969 C 113.316406 161.03125 112.476562 160.730469 111.652344 160.390625 C 110.828125 160.046875 110.023438 159.667969 109.234375 159.246094 C 108.449219 158.824219 107.683594 158.367188 106.941406 157.871094 C 106.199219 157.375 105.480469 156.84375 104.792969 156.277344 C 104.101562 155.710938 103.441406 155.113281 102.808594 154.480469 C 102.179688 153.851562 101.578125 153.1875 101.011719 152.5 C 100.445312 151.808594 99.914062 151.09375 99.417969 150.351562 C 98.921875 149.609375 98.464844 148.84375 98.042969 148.054688 C 97.625 147.269531 97.242188 146.460938 96.898438 145.636719 C 96.558594 144.8125 96.257812 143.972656 96 143.117188 C 95.738281 142.265625 95.523438 141.398438 95.347656 140.523438 C 95.175781 139.648438 95.042969 138.765625 94.957031 137.878906 C 94.867188 136.988281 94.824219 136.097656 94.824219 135.207031 C 94.824219 134.3125 94.867188 133.421875 94.957031 132.535156 C 95.042969 131.644531 95.175781 130.761719 95.347656 129.886719 C 95.523438 129.011719 95.738281 128.148438 96 127.292969 C 96.257812 126.4375 96.558594 125.597656 96.898438 124.773438 C 97.242188 123.949219 97.625 123.144531 98.042969 122.355469 C 98.464844 121.566406 98.921875 120.804688 99.417969 120.0625 C 99.914062 119.320312 100.445312 118.601562 101.011719 117.910156 C 101.578125 117.222656 102.179688 116.5625 102.808594 115.929688 C 103.441406 115.296875 104.101562 114.699219 104.792969 114.132812 C 105.480469 113.566406 106.199219 113.035156 106.941406 112.539062 C 107.683594 112.042969 108.449219 111.585938 109.234375 111.164062 C 110.023438 110.742188 110.828125 110.363281 111.652344 110.019531 C 112.476562 109.679688 113.316406 109.378906 114.171875 109.121094 C 115.027344 108.859375 115.890625 108.644531 116.765625 108.46875 C 117.640625 108.296875 118.523438 108.164062 119.414062 108.078125 C 120.300781 107.988281 121.191406 107.945312 122.085938 107.945312 C 122.976562 107.945312 123.867188 107.988281 124.757812 108.078125 C 125.644531 108.164062 126.527344 108.296875 127.402344 108.46875 C 128.277344 108.644531 129.144531 108.859375 129.996094 109.121094 C 130.851562 109.378906 131.691406 109.679688 132.515625 110.019531 C 133.339844 110.363281 134.148438 110.742188 134.933594 111.164062 C 135.722656 111.585938 136.488281 112.042969 137.230469 112.539062 C 137.972656 113.035156 138.6875 113.566406 139.378906 114.132812 C 140.070312 114.699219 140.730469 115.296875 141.359375 115.929688 C 141.992188 116.5625 142.589844 117.222656 143.15625 117.910156 C 143.722656 118.601562 144.253906 119.320312 144.75 120.0625 C 145.246094 120.804688 145.703125 121.566406 146.125 122.355469 C 146.546875 123.144531 146.929688 123.949219 147.269531 124.773438 C 147.613281 125.597656 147.910156 126.4375 148.171875 127.292969 C 148.429688 128.148438 148.648438 129.011719 148.820312 129.886719 C 148.996094 130.761719 149.125 131.644531 149.214844 132.535156 C 149.300781 133.421875 149.34375 134.3125 149.34375 135.207031 Z M 149.34375 135.207031 " fill-opacity="1" fill-rule="nonzero"/><path fill="#00ff00" d="M 98.585938 182.5625 L 145.417969 182.5625 L 145.417969 333.21875 L 98.585938 333.21875 Z M 98.585938 182.5625 " fill-opacity="1" fill-rule="nonzero"/><path fill="#00ff00" d="M 174.871094 182.5625 L 219.445312 182.5625 L 219.445312 333.21875 L 174.871094 333.21875 Z M 174.871094 182.5625 " fill-opacity="1" fill-rule="nonzero"/><path fill="#00ff00" d="M 176.796875 262.777344 L 221.371094 262.777344 L 221.371094 333.21875 L 176.796875 333.21875 Z M 176.796875 262.777344 " fill-opacity="1" fill-rule="nonzero"/><path fill="#00ff00" d="M 221.371094 262.777344 C 221.371094 262.777344 220.671875 243.234375 225.828125 233.074219 C 225.828125 233.074219 230.980469 220.5625 247.179688 220.488281 C 247.179688 220.488281 266.179688 217.171875 271.625 236.023438 C 271.625 236.023438 273.6875 246.476562 273.6875 250.894531 C 273.6875 255.316406 273.835938 333.21875 273.835938 333.21875 L 320.519531 333.21875 L 320.519531 246.921875 C 320.519531 246.921875 323.90625 198.171875 294.648438 184.820312 C 294.648438 184.820312 246.539062 163.222656 220.429688 202.886719 C 220.429688 202.886719 214.734375 206.8125 213.945312 195.816406 C 213.160156 184.820312 206.484375 212.703125 206.289062 213.292969 C 206.089844 213.882812 213.945312 268.863281 213.945312 268.863281 Z M 221.371094 262.777344 " fill-opacity="1" fill-rule="nonzero"/><g clip-path="url(#e8b8540f50)"><path fill="#090909" d="M 360.222656 307.695312 C 360.222656 336.683594 336.71875 360.1875 307.726562 360.1875 L 67.277344 360.1875 C 38.289062 360.1875 14.789062 336.683594 14.789062 307.695312 L 14.789062 67.246094 C 14.789062 38.253906 38.289062 14.753906 67.277344 14.753906 L 307.726562 14.753906 C 336.71875 14.753906 360.222656 38.253906 360.222656 67.246094 Z M 360.222656 307.695312 " fill-opacity="1" fill-rule="nonzero"/></g><path fill="#00ff00" d="M 151.378906 137.996094 C 151.378906 138.839844 151.335938 139.683594 151.253906 140.523438 C 151.171875 141.363281 151.046875 142.199219 150.882812 143.027344 C 150.71875 143.859375 150.511719 144.675781 150.269531 145.484375 C 150.023438 146.292969 149.738281 147.089844 149.414062 147.871094 C 149.089844 148.652344 148.730469 149.414062 148.332031 150.160156 C 147.933594 150.902344 147.5 151.628906 147.03125 152.332031 C 146.5625 153.035156 146.058594 153.710938 145.523438 154.363281 C 144.984375 155.019531 144.417969 155.644531 143.820312 156.242188 C 143.222656 156.839844 142.597656 157.40625 141.945312 157.941406 C 141.292969 158.476562 140.613281 158.980469 139.910156 159.449219 C 139.207031 159.921875 138.484375 160.355469 137.738281 160.753906 C 136.992188 161.152344 136.230469 161.511719 135.449219 161.835938 C 134.667969 162.160156 133.875 162.441406 133.066406 162.6875 C 132.257812 162.933594 131.4375 163.140625 130.609375 163.304688 C 129.78125 163.46875 128.945312 163.59375 128.105469 163.675781 C 127.261719 163.757812 126.417969 163.800781 125.574219 163.800781 C 124.730469 163.800781 123.886719 163.757812 123.042969 163.675781 C 122.203125 163.59375 121.367188 163.46875 120.539062 163.304688 C 119.710938 163.140625 118.890625 162.933594 118.082031 162.6875 C 117.273438 162.441406 116.480469 162.160156 115.699219 161.835938 C 114.917969 161.511719 114.15625 161.152344 113.410156 160.753906 C 112.664062 160.355469 111.941406 159.921875 111.238281 159.449219 C 110.535156 158.980469 109.855469 158.476562 109.203125 157.941406 C 108.550781 157.40625 107.925781 156.839844 107.328125 156.242188 C 106.730469 155.644531 106.164062 155.019531 105.625 154.363281 C 105.089844 153.710938 104.585938 153.035156 104.117188 152.332031 C 103.648438 151.628906 103.214844 150.902344 102.816406 150.160156 C 102.417969 149.414062 102.058594 148.652344 101.734375 147.871094 C 101.410156 147.089844 101.125 146.292969 100.878906 145.484375 C 100.636719 144.675781 100.429688 143.859375 100.265625 143.027344 C 100.101562 142.199219 99.976562 141.363281 99.894531 140.523438 C 99.8125 139.683594 99.769531 138.839844 99.769531 137.996094 C 99.769531 137.148438 99.8125 136.304688 99.894531 135.464844 C 99.976562 134.625 100.101562 133.789062 100.265625 132.960938 C 100.429688 132.132812 100.636719 131.3125 100.878906 130.503906 C 101.125 129.695312 101.410156 128.898438 101.734375 128.121094 C 102.058594 127.339844 102.417969 126.574219 102.816406 125.832031 C 103.214844 125.085938 103.648438 124.359375 104.117188 123.65625 C 104.585938 122.957031 105.089844 122.277344 105.625 121.625 C 106.164062 120.972656 106.730469 120.34375 107.328125 119.746094 C 107.925781 119.148438 108.550781 118.582031 109.203125 118.046875 C 109.855469 117.511719 110.535156 117.007812 111.238281 116.539062 C 111.941406 116.070312 112.664062 115.636719 113.410156 115.238281 C 114.15625 114.839844 114.917969 114.476562 115.699219 114.152344 C 116.480469 113.832031 117.273438 113.546875 118.082031 113.300781 C 118.890625 113.054688 119.710938 112.851562 120.539062 112.683594 C 121.367188 112.519531 122.203125 112.398438 123.042969 112.3125 C 123.886719 112.230469 124.730469 112.191406 125.574219 112.191406 C 126.417969 112.191406 127.261719 112.230469 128.105469 112.3125 C 128.945312 112.398438 129.78125 112.519531 130.609375 112.683594 C 131.4375 112.851562 132.257812 113.054688 133.066406 113.300781 C 133.875 113.546875 134.667969 113.832031 135.449219 114.152344 C 136.230469 114.476562 136.992188 114.839844 137.738281 115.238281 C 138.484375 115.636719 139.207031 116.070312 139.910156 116.539062 C 140.613281 117.007812 141.292969 117.511719 141.945312 118.046875 C 142.597656 118.582031 143.222656 119.148438 143.820312 119.746094 C 144.417969 120.34375 144.984375 120.972656 145.523438 121.625 C 146.058594 122.277344 146.5625 122.957031 147.03125 123.65625 C 147.5 124.359375 147.933594 125.085938 148.332031 125.832031 C 148.730469 126.574219 149.089844 127.339844 149.414062 128.121094 C 149.738281 128.898438 150.023438 129.695312 150.269531 130.503906 C 150.511719 131.3125 150.71875 132.132812 150.882812 132.960938 C 151.046875 133.789062 151.171875 134.625 151.253906 135.464844 C 151.335938 136.304688 151.378906 137.148438 151.378906 137.996094 Z M 151.378906 137.996094 " fill-opacity="1" fill-rule="nonzero"/><path fill="#00ff00" d="M 103.328125 182.824219 L 147.660156 182.824219 L 147.660156 325.4375 L 103.328125 325.4375 Z M 103.328125 182.824219 " fill-opacity="1" fill-rule="nonzero"/><path fill="#00ff00" d="M 175.542969 182.824219 L 217.738281 182.824219 L 217.738281 325.4375 L 175.542969 325.4375 Z M 175.542969 182.824219 " fill-opacity="1" fill-rule="nonzero"/><path fill="#00ff00" d="M 177.367188 258.757812 L 219.558594 258.757812 L 219.558594 325.4375 L 177.367188 325.4375 Z M 177.367188 258.757812 " fill-opacity="1" fill-rule="nonzero"/><path fill="#00ff00" d="M 219.558594 258.757812 C 219.558594 258.757812 218.902344 240.257812 223.777344 230.640625 C 223.777344 230.640625 228.660156 218.796875 243.992188 218.726562 C 243.992188 218.726562 261.976562 215.585938 267.132812 233.429688 C 267.132812 233.429688 269.085938 243.328125 269.085938 247.511719 C 269.085938 251.695312 269.226562 325.441406 269.226562 325.441406 L 313.417969 325.441406 L 313.417969 243.746094 C 313.417969 243.746094 316.625 197.601562 288.929688 184.960938 C 288.929688 184.960938 243.386719 164.515625 218.667969 202.0625 C 218.667969 202.0625 213.277344 205.777344 212.53125 195.371094 C 211.789062 184.960938 205.46875 211.355469 205.285156 211.914062 C 205.097656 212.472656 212.53125 264.519531 212.53125 264.519531 Z M 219.558594 258.757812 " fill-opacity="1" fill-rule="nonzero"/></svg>